REM DIRINDEX 1\2,1\4,1\3\5,1\3\6,1\3\7
REM DIRNAME folder01,folder02,folder03,folder04,folder05,folder06,folder07
TITLE ""
FILE "CD2Track06.mp3" MP3
  TRACK 01 AUDIO
    TITLE "0:"
    INDEX 01 00:00:00
  TRACK 02 AUDIO
    TITLE "4:cjc083_1598"
    INDEX 01 00:00:25
  TRACK 03 AUDIO
    TITLE "0:"
    INDEX 01 00:04:46
  TRACK 04 AUDIO
    TITLE "5:cjc083_1599"
    INDEX 01 00:05:14
  TRACK 05 AUDIO
    TITLE "0:"
    INDEX 01 00:06:28
  TRACK 06 AUDIO
    TITLE "6:cjc083_1600"
    INDEX 01 00:06:73
  TRACK 07 AUDIO
    TITLE "0:"
    INDEX 01 00:08:19
  TRACK 08 AUDIO
    TITLE "5:cjc083_1601"
    INDEX 01 00:08:62
  TRACK 09 AUDIO
    TITLE "0:"
    INDEX 01 00:10:02
  TRACK 10 AUDIO
    TITLE "6:cjc083_1602"
    INDEX 01 00:10:47
  TRACK 11 AUDIO
    TITLE "0:"
    INDEX 01 00:12:22
  TRACK 12 AUDIO
    TITLE "5:cjc083_1603"
    INDEX 01 00:12:65
  TRACK 13 AUDIO
    TITLE "0:"
    INDEX 01 00:13:71
  TRACK 14 AUDIO
    TITLE "6:cjc083_1604"
    INDEX 01 00:14:37
  TRACK 15 AUDIO
    TITLE "0:"
    INDEX 01 00:15:64
  TRACK 16 AUDIO
    TITLE "5:cjc083_1605"
    INDEX 01 00:16:30
  TRACK 17 AUDIO
    TITLE "0:"
    INDEX 01 00:17:61
  TRACK 18 AUDIO
    TITLE "6:cjc083_1606"
    INDEX 01 00:18:25
  TRACK 19 AUDIO
    TITLE "0:"
    INDEX 01 00:20:20
  TRACK 20 AUDIO
    TITLE "5:cjc083_1607"
    INDEX 01 00:20:63
  TRACK 21 AUDIO
    TITLE "0:"
    INDEX 01 00:22:19
  TRACK 22 AUDIO
    TITLE "6:cjc083_1608"
    INDEX 01 00:22:62
  TRACK 23 AUDIO
    TITLE "0:"
    INDEX 01 00:24:31
  TRACK 24 AUDIO
    TITLE "5:cjc083_1609"
    INDEX 01 00:24:72
  TRACK 25 AUDIO
    TITLE "0:"
    INDEX 01 00:26:28
  TRACK 26 AUDIO
    TITLE "6:cjc083_1610"
    INDEX 01 00:26:73
  TRACK 27 AUDIO
    TITLE "0:"
    INDEX 01 00:29:19
  TRACK 28 AUDIO
    TITLE "5:cjc083_1611"
    INDEX 01 00:29:62
  TRACK 29 AUDIO
    TITLE "0:"
    INDEX 01 00:30:65
  TRACK 30 AUDIO
    TITLE "6:cjc083_1612"
    INDEX 01 00:31:39
  TRACK 31 AUDIO
    TITLE "0:"
    INDEX 01 00:32:52
  TRACK 32 AUDIO
    TITLE "5:cjc083_1613"
    INDEX 01 00:33:13
  TRACK 33 AUDIO
    TITLE "0:"
    INDEX 01 00:34:22
  TRACK 34 AUDIO
    TITLE "6:cjc083_1614"
    INDEX 01 00:34:65
  TRACK 35 AUDIO
    TITLE "0:"
    INDEX 01 00:35:70
  TRACK 36 AUDIO
    TITLE "5:cjc083_1615"
    INDEX 01 00:36:36
  TRACK 37 AUDIO
    TITLE "0:"
    INDEX 01 00:38:02
  TRACK 38 AUDIO
    TITLE "6:cjc083_1616"
    INDEX 01 00:38:45
  TRACK 39 AUDIO
    TITLE "0:"
    INDEX 01 00:40:52
  TRACK 40 AUDIO
    TITLE "5:cjc083_1617"
    INDEX 01 00:41:18
  TRACK 41 AUDIO
    TITLE "0:"
    INDEX 01 00:42:70
  TRACK 42 AUDIO
    TITLE "6:cjc083_1618"
    INDEX 01 00:43:37
  TRACK 43 AUDIO
    TITLE "0:"
    INDEX 01 00:45:73
  TRACK 44 AUDIO
    TITLE "5:cjc083_1619"
    INDEX 01 00:46:43
  TRACK 45 AUDIO
    TITLE "0:"
    INDEX 01 00:47:58
  TRACK 46 AUDIO
    TITLE "6:cjc083_1620"
    INDEX 01 00:48:26
  TRACK 47 AUDIO
    TITLE "0:"
    INDEX 01 00:49:43
  TRACK 48 AUDIO
    TITLE "5:cjc083_1621"
    INDEX 01 00:50:09
  TRACK 49 AUDIO
    TITLE "0:"
    INDEX 01 00:51:26
  TRACK 50 AUDIO
    TITLE "6:cjc083_1622"
    INDEX 01 00:52:00
  TRACK 51 AUDIO
    TITLE "0:"
    INDEX 01 00:53:62
  TRACK 52 AUDIO
    TITLE "5:cjc083_1623"
    INDEX 01 00:54:30
  TRACK 53 AUDIO
    TITLE "0:"
    INDEX 01 00:56:25
  TRACK 54 AUDIO
    TITLE "6:cjc083_1624"
    INDEX 01 00:56:69
  TRACK 55 AUDIO
    TITLE "0:"
    INDEX 01 00:58:73
  TRACK 56 AUDIO
    TITLE "5:cjc083_1625"
    INDEX 01 00:59:41
  TRACK 57 AUDIO
    TITLE "0:"
    INDEX 01 01:00:55
  TRACK 58 AUDIO
    TITLE "6:cjc083_1626"
    INDEX 01 01:01:23
  TRACK 59 AUDIO
    TITLE "0:"
    INDEX 01 01:02:34
  TRACK 60 AUDIO
    TITLE "5:cjc083_1627"
    INDEX 01 01:03:00
  TRACK 61 AUDIO
    TITLE "0:"
    INDEX 01 01:04:19
  TRACK 62 AUDIO
    TITLE "6:cjc083_1628"
    INDEX 01 01:04:62
  TRACK 63 AUDIO
    TITLE "0:"
    INDEX 01 01:06:08
  TRACK 64 AUDIO
    TITLE "5:cjc083_1629"
    INDEX 01 01:06:49
  TRACK 65 AUDIO
    TITLE "0:"
    INDEX 01 01:07:74
  TRACK 66 AUDIO
    TITLE "6:cjc083_1630"
    INDEX 01 01:08:40
  TRACK 67 AUDIO
    TITLE "0:"
    INDEX 01 01:09:50
  TRACK 68 AUDIO
    TITLE "5:cjc083_1631"
    INDEX 01 01:10:18
  TRACK 69 AUDIO
    TITLE "0:"
    INDEX 01 01:11:70
  TRACK 70 AUDIO
    TITLE "6:cjc083_1632"
    INDEX 01 01:12:40
  TRACK 71 AUDIO
    TITLE "0:"
    INDEX 01 01:15:05
  TRACK 72 AUDIO
    TITLE "5:cjc083_1633"
    INDEX 01 01:15:44
  TRACK 73 AUDIO
    TITLE "0:"
    INDEX 01 01:16:60
  TRACK 74 AUDIO
    TITLE "6:cjc083_1634"
    INDEX 01 01:17:26
  TRACK 75 AUDIO
    TITLE "0:"
    INDEX 01 01:18:58
  TRACK 76 AUDIO
    TITLE "5:cjc083_1635"
    INDEX 01 01:19:27
  TRACK 77 AUDIO
    TITLE "0:"
    INDEX 01 01:20:44
  TRACK 78 AUDIO
    TITLE "6:cjc083_1636"
    INDEX 01 01:21:10
  TRACK 79 AUDIO
    TITLE "0:"
    INDEX 01 01:22:44
  TRACK 80 AUDIO
    TITLE "7:cjc083_1637"
    INDEX 01 01:24:06
  TRACK 81 AUDIO
    TITLE "0:"
    INDEX 01 01:34:14
